<svg width="191" height="35" viewBox="0 0 191 35" fill="none" xmlns="http://www.w3.org/2000/svg">
<path d="M31.9981 26.7872L31.6916 33.409C31.6494 34.3104 30.9177 35.0173 30.0385 34.9997C22.6964 34.8563 16.2776 31.944 12.8124 27.2408L13.2185 31.6023C13.299 32.4723 12.7128 33.2578 11.8738 33.4071L4.63708 34.6835C3.70424 34.8485 2.83077 34.1651 2.73882 33.1969L0.00732342 3.96221C-0.067381 3.15313 0.436394 2.40493 1.20068 2.19285L8.40487 0.181939C9.38177 -0.0910263 10.3606 0.606113 10.4545 1.63906L11.4716 12.8326C14.0594 7.10425 20.0703 2.20659 27.8031 0.0582212C28.6747 -0.183323 29.573 0.34886 29.8029 1.24434L31.682 8.52798C31.9157 9.43132 31.3794 10.3543 30.4944 10.5762C23.5814 12.2984 19.8634 17.1058 20.4687 20.0396C20.9974 22.6024 25.0659 24.9078 30.4178 25.0433C31.3296 25.063 32.0421 25.8544 31.9981 26.7872Z" fill="#FF5219"/>
<path d="M48 33.4998V1.5H56.2144V17.3082H58.8719L64.4287 8.36664H73.1263L65.8783 20.2082L73.8511 33.4998H64.9119L59.3551 24.3165H56.2144V33.4998H48Z" fill="white"/>
<path d="M77.6532 29.5848C74.9473 26.9748 73.5944 23.8493 73.5944 20.2082C73.5944 16.5671 74.9473 13.4416 77.6532 10.8316C80.3591 8.22164 83.6771 6.91665 87.6071 6.91665C91.5371 6.91665 94.855 8.22164 97.5609 10.8316C100.267 13.4416 101.62 16.5671 101.62 20.2082C101.62 23.8493 100.267 26.9748 97.5609 29.5848C94.855 32.1948 91.5371 33.4998 87.6071 33.4998C83.6771 33.4998 80.3591 32.1948 77.6532 29.5848ZM83.5965 15.6649C82.5657 16.7927 82.0503 18.3071 82.0503 20.2082C82.0503 22.1093 82.5657 23.6399 83.5965 24.7999C84.6596 25.9276 85.9964 26.4915 87.6071 26.4915C89.2177 26.4915 90.5385 25.9276 91.5693 24.7999C92.6323 23.6399 93.1639 22.1093 93.1639 20.2082C93.1639 18.3071 92.6323 16.7927 91.5693 15.6649C90.5385 14.5049 89.2177 13.9249 87.6071 13.9249C85.9964 13.9249 84.6596 14.5049 83.5965 15.6649Z" fill="white"/>
<path d="M108.089 29.5848C105.383 26.9748 104.03 23.8493 104.03 20.2082C104.03 16.5671 105.383 13.4416 108.089 10.8316C110.795 8.22164 114.113 6.91665 118.043 6.91665C121.973 6.91665 125.291 8.22164 127.997 10.8316C130.703 13.4416 132.056 16.5671 132.056 20.2082C132.056 23.8493 130.703 26.9748 127.997 29.5848C125.291 32.1948 121.973 33.4998 118.043 33.4998C114.113 33.4998 110.795 32.1948 108.089 29.5848ZM114.032 15.6649C113.001 16.7927 112.486 18.3071 112.486 20.2082C112.486 22.1093 113.001 23.6399 114.032 24.7999C115.095 25.9276 116.432 26.4915 118.043 26.4915C119.654 26.4915 120.974 25.9276 122.005 24.7999C123.068 23.6399 123.6 22.1093 123.6 20.2082C123.6 18.3071 123.068 16.7927 122.005 15.6649C120.974 14.5049 119.654 13.9249 118.043 13.9249C116.432 13.9249 115.095 14.5049 114.032 15.6649Z" fill="white"/>
<path d="M135.674 33.4998V1.5H143.888V11.7499H144.371C144.822 10.9766 145.402 10.3 146.111 9.71996C147.754 8.33442 149.671 7.64164 151.861 7.64164C154.825 7.64164 157.128 8.54386 158.771 10.3483C160.446 12.1205 161.283 14.6821 161.283 18.0332V33.4998H153.069V19.2416C153.069 17.7916 152.682 16.6638 151.909 15.8582C151.136 15.0527 150.073 14.6499 148.72 14.6499C147.335 14.6499 146.175 15.1655 145.241 16.1966C144.339 17.1955 143.888 18.5327 143.888 20.2082V33.4998H135.674Z" fill="white"/>
<path d="M166.937 30.5998C164.778 28.1509 163.699 24.9287 163.699 20.9332C163.699 16.9377 164.778 13.7316 166.937 11.315C169.095 8.86608 171.72 7.64164 174.813 7.64164C176.81 7.64164 178.695 8.33442 180.466 9.71996C181.207 10.3322 181.819 11.0088 182.302 11.7499H182.786V8.36664H191V33.4998H182.786V30.1165H182.302C181.851 30.8898 181.239 31.5826 180.466 32.1948C178.727 33.5481 176.842 33.4998 174.813 33.4998C171.72 33.4998 169.095 33.0165 166.937 30.5998ZM173.605 16.2932C172.638 17.3888 172.155 18.9354 172.155 20.9332C172.155 22.931 172.638 24.4776 173.605 25.5732C174.571 26.6687 175.86 27.2165 177.47 27.2165C179.081 27.2165 180.37 26.6687 181.336 25.5732C182.302 24.4776 182.786 22.931 182.786 20.9332C182.786 18.9354 182.302 17.3888 181.336 16.2932C180.37 15.1977 179.081 14.6499 177.47 14.6499C175.86 14.6499 174.571 15.1977 173.605 16.2932Z" fill="white"/>
</svg>
